<svg id="Layer_1" data-name="Layer 1" xmlns="http://www.w3.org/2000/svg" viewBox="0 0 82.75 91.68">
  <defs>
    <style>
      .cls-1 {
        fill: #249346;
      }

      .cls-2 {
        fill: #8f267d;
      }

      .cls-3 {
        fill: #27a9be;
      }
    </style>
  </defs>
  <title>logo</title>
  <g>
    <path class="cls-1" d="M48.87,44.62C73,72.78,66.39,52.35,63.8,41.05c-.3-1.34,7.83,5.9,13.62,34.71,0,0-10.84.39-29.24-3.58-9-1.93,36.78.64-8.51-18.67C26.15,47.74,34.84,28.22,48.87,44.62Z" transform="translate(-32.91 -26.75)"/>
    <path class="cls-2" d="M51,112.88c22.71-23.94,17.28-8.26,15,3.12-.26,1.35,7.65-6.14,12.58-35.11,0,0-10.32,4.48-28.32,4.5-8.47,0,32.35,4.14-8.75,18.88C27.67,109.23,37.12,127.48,51,112.88Z" transform="translate(-32.91 -26.75)"/>
  </g>
  <path class="cls-3" d="M109.82,42.75C90.19,69.26,104.69,61.19,115.5,57c1.29-.5-4.72,8.6-32.39,18.47,0,0,2.62-10.93-.48-28.66C81.17,38.48,92.32,78,99.7,34.92,102.18,20.43,121.79,26.57,109.82,42.75Z" transform="translate(-32.91 -26.75)"/>
</svg>
